<svg xmlns="http://www.w3.org/2000/svg" width="1048" height="288" viewBox="0 0 1048 288" fill="none">
  <rect width="1048" height="288" fill="none"/>
  <g fill="#aa46c8">
    <rect x="104" y="69" width="28" height="15"/>
    <rect x="132" y="69" width="28" height="15"/>
    <rect x="244" y="69" width="28" height="15"/>
    <rect x="272" y="54" width="28" height="30"/>
    <rect x="300" y="54" width="28" height="30"/>
    <rect x="328" y="54" width="28" height="30"/>
    <rect x="356" y="54" width="28" height="30"/>
    <rect x="384" y="69" width="28" height="15"/>
    <rect x="468" y="54" width="28" height="30"/>
    <rect x="496" y="54" width="28" height="30"/>
    <rect x="692" y="54" width="28" height="30"/>
    <rect x="720" y="54" width="28" height="30"/>
    <rect x="776" y="69" width="28" height="15"/>
    <rect x="804" y="69" width="28" height="15"/>
    <rect x="832" y="69" width="28" height="15"/>
    <rect x="860" y="69" width="28" height="15"/>
    <rect x="888" y="69" width="28" height="15"/>
    <rect x="916" y="69" width="28" height="15"/>
    <rect x="104" y="84" width="28" height="30"/>
    <rect x="132" y="84" width="28" height="30"/>
    <rect x="216" y="84" width="28" height="30"/>
    <rect x="244" y="84" width="28" height="30"/>
    <rect x="272" y="84" width="28" height="15"/>
    <rect x="356" y="84" width="28" height="15"/>
    <rect x="384" y="84" width="28" height="30"/>
    <rect x="412" y="84" width="28" height="30"/>
    <rect x="468" y="84" width="28" height="15"/>
    <rect x="496" y="84" width="28" height="30"/>
    <rect x="580" y="84" width="28" height="30"/>
    <rect x="608" y="84" width="28" height="30"/>
    <rect x="692" y="84" width="28" height="30"/>
    <rect x="720" y="84" width="28" height="15"/>
    <rect x="776" y="84" width="28" height="30"/>
    <rect x="804" y="84" width="28" height="30"/>
    <rect x="832" y="84" width="28" height="15"/>
    <rect x="860" y="84" width="28" height="15"/>
    <rect x="888" y="84" width="28" height="15"/>
    <rect x="916" y="84" width="28" height="15"/>
    <rect x="944" y="84" width="28" height="30"/>
    <rect x="972" y="84" width="28" height="30"/>
    <rect x="104" y="114" width="28" height="30"/>
    <rect x="132" y="114" width="28" height="30"/>
    <rect x="216" y="114" width="28" height="30"/>
    <rect x="244" y="114" width="28" height="30"/>
    <rect x="384" y="114" width="28" height="30"/>
    <rect x="412" y="114" width="28" height="30"/>
    <rect x="496" y="114" width="28" height="30"/>
    <rect x="524" y="114" width="28" height="30"/>
    <rect x="552" y="129" width="28" height="15"/>
    <rect x="580" y="114" width="28" height="30"/>
    <rect x="608" y="114" width="28" height="30"/>
    <rect x="636" y="129" width="28" height="15"/>
    <rect x="664" y="114" width="28" height="30"/>
    <rect x="692" y="114" width="28" height="30"/>
    <rect x="776" y="114" width="28" height="30"/>
    <rect x="804" y="114" width="28" height="30"/>
    <rect x="944" y="114" width="28" height="30"/>
    <rect x="972" y="114" width="28" height="30"/>
    <rect x="104" y="144" width="28" height="30"/>
    <rect x="132" y="144" width="28" height="30"/>
    <rect x="216" y="144" width="28" height="15"/>
    <rect x="244" y="144" width="28" height="30"/>
    <rect x="272" y="144" width="28" height="30"/>
    <rect x="300" y="159" width="28" height="15"/>
    <rect x="328" y="159" width="28" height="15"/>
    <rect x="356" y="144" width="28" height="30"/>
    <rect x="384" y="144" width="28" height="30"/>
    <rect x="412" y="144" width="28" height="15"/>
    <rect x="496" y="144" width="28" height="15"/>
    <rect x="524" y="144" width="28" height="30"/>
    <rect x="552" y="144" width="28" height="30"/>
    <rect x="636" y="144" width="28" height="30"/>
    <rect x="664" y="144" width="28" height="30"/>
    <rect x="692" y="144" width="28" height="15"/>
    <rect x="776" y="144" width="28" height="30"/>
    <rect x="804" y="144" width="28" height="30"/>
    <rect x="832" y="144" width="28" height="30"/>
    <rect x="860" y="144" width="28" height="30"/>
    <rect x="888" y="144" width="28" height="30"/>
    <rect x="916" y="144" width="28" height="30"/>
    <rect x="944" y="144" width="28" height="30"/>
    <rect x="104" y="174" width="28" height="30"/>
    <rect x="132" y="174" width="28" height="30"/>
    <rect x="272" y="174" width="28" height="15"/>
    <rect x="300" y="174" width="28" height="15"/>
    <rect x="328" y="174" width="28" height="15"/>
    <rect x="356" y="174" width="28" height="15"/>
    <rect x="524" y="174" width="28" height="15"/>
    <rect x="552" y="174" width="28" height="15"/>
    <rect x="636" y="174" width="28" height="15"/>
    <rect x="664" y="174" width="28" height="15"/>
    <rect x="776" y="174" width="28" height="30"/>
    <rect x="804" y="174" width="28" height="30"/>
    <rect x="888" y="174" width="28" height="15"/>
    <rect x="916" y="174" width="28" height="30"/>
    <rect x="944" y="174" width="28" height="30"/>
    <rect x="972" y="189" width="28" height="15"/>
    <rect x="104" y="204" width="28" height="30"/>
    <rect x="132" y="204" width="28" height="30"/>
    <rect x="160" y="219" width="28" height="15"/>
    <rect x="188" y="219" width="28" height="15"/>
    <rect x="216" y="219" width="28" height="15"/>
    <rect x="244" y="219" width="28" height="15"/>
    <rect x="272" y="219" width="28" height="15"/>
    <rect x="300" y="219" width="28" height="15"/>
    <rect x="328" y="219" width="28" height="15"/>
    <rect x="356" y="219" width="28" height="15"/>
    <rect x="384" y="219" width="28" height="15"/>
    <rect x="412" y="219" width="28" height="15"/>
    <rect x="440" y="219" width="28" height="15"/>
    <rect x="468" y="219" width="28" height="15"/>
    <rect x="496" y="219" width="28" height="15"/>
    <rect x="524" y="219" width="28" height="15"/>
    <rect x="552" y="219" width="28" height="15"/>
    <rect x="580" y="219" width="28" height="15"/>
    <rect x="608" y="219" width="28" height="15"/>
    <rect x="636" y="219" width="28" height="15"/>
    <rect x="664" y="219" width="28" height="15"/>
    <rect x="692" y="219" width="28" height="15"/>
    <rect x="720" y="219" width="28" height="15"/>
    <rect x="748" y="219" width="28" height="15"/>
    <rect x="776" y="204" width="28" height="30"/>
    <rect x="804" y="204" width="28" height="30"/>
    <rect x="944" y="204" width="28" height="30"/>
    <rect x="972" y="204" width="28" height="30"/>
    <rect x="104" y="234" width="28" height="15"/>
    <rect x="132" y="234" width="28" height="15"/>
    <rect x="160" y="234" width="28" height="15"/>
    <rect x="188" y="234" width="28" height="15"/>
    <rect x="216" y="234" width="28" height="15"/>
    <rect x="244" y="234" width="28" height="15"/>
    <rect x="272" y="234" width="28" height="15"/>
    <rect x="300" y="234" width="28" height="15"/>
    <rect x="328" y="234" width="28" height="15"/>
    <rect x="356" y="234" width="28" height="15"/>
    <rect x="384" y="234" width="28" height="15"/>
    <rect x="412" y="234" width="28" height="15"/>
    <rect x="440" y="234" width="28" height="15"/>
    <rect x="468" y="234" width="28" height="15"/>
    <rect x="496" y="234" width="28" height="15"/>
    <rect x="524" y="234" width="28" height="15"/>
    <rect x="552" y="234" width="28" height="15"/>
    <rect x="580" y="234" width="28" height="15"/>
    <rect x="608" y="234" width="28" height="15"/>
    <rect x="636" y="234" width="28" height="15"/>
    <rect x="664" y="234" width="28" height="15"/>
    <rect x="692" y="234" width="28" height="15"/>
    <rect x="720" y="234" width="28" height="15"/>
    <rect x="748" y="234" width="28" height="15"/>
    <rect x="776" y="234" width="28" height="15"/>
    <rect x="804" y="234" width="28" height="15"/>
    <rect x="944" y="234" width="28" height="15"/>
    <rect x="972" y="234" width="28" height="15"/>
  </g>
</svg>
